<svg width="40" height="40" viewBox="0 0 40 40" fill="none" xmlns="http://www.w3.org/2000/svg">
<path d="M24.75 3.75C21.5 3.75 19.75 4.75 18.75 5.75C17.75 4.75 16 3.75 12.75 3.75C4 3.75 0 8.75 0 8.75V36L16.25 33.75C16.25 33.75 16.75 34.75 17 35H20.25C20.5 34.75 21 33.75 21 33.75L37.25 36V8.75C37.5 8.75 33.75 3.75 24.75 3.75ZM17.5 30C16 29.5 14.25 29.25 11.75 29C11.5 29 11.5 29 11.25 29C7.75 29 4.75 30 2.5 30.75V9C3.75 8 7 5.25 12.75 5.25C17 5.25 17.5 7.5 17.5 7.75V30ZM35 30.75C32.5 29.75 29.75 29 26.25 29C26 29 25.75 29 25.75 29C23.25 29 22.5 29.5 20 30V7.75C20 7.25 20.5 5.25 24.75 5.25C30.5 5.25 34.75 7.75 34.75 9V30.75H35Z" fill="#F2F2F2"/>
</svg>
