<svg width="33" height="33" viewBox="0 0 33 33" fill="none" xmlns="http://www.w3.org/2000/svg">
<g clip-path="url(#clip0_10_69)">
<path d="M29.4186 0H3.5814C1.60345 0 0 1.60345 0 3.5814V29.4186C0 31.3966 1.60345 33 3.5814 33H29.4186C31.3966 33 33 31.3966 33 29.4186V3.5814C33 1.60345 31.3966 0 29.4186 0Z" fill="#3B5999"/>
<path fill-rule="evenodd" clip-rule="evenodd" d="M10.7442 13.5581H14.1977V12.9186C14.1977 11.8953 14.0698 10.6163 14.1977 9.59302C14.3256 7.16279 15.6047 5.62791 18.9302 5.5L22.2558 5.62791V9.2093C20.8489 9.2093 18.4186 8.69767 18.1628 10.4884V13.5581H22L21.6163 17.5233H18.1628V27.5H14.1977V17.5233L10.7442 17.3954V13.5581Z" fill="white"/>
<path fill-rule="evenodd" clip-rule="evenodd" d="M33 16.3721L22.2558 5.6279V9.2093C20.8489 9.2093 18.4186 8.69767 18.1628 10.4884V13.5581H22L21.6163 17.5232H18.1628V27.5H14.1977L19.6977 33H29.4186L33 29.4186V16.3721Z" fill="#30487C"/>
</g>
<defs>
<clipPath id="clip0_10_69">
<rect width="33" height="33" fill="white"/>
</clipPath>
</defs>
</svg>
