<svg width="39" height="39" viewBox="0 0 39 39" fill="none" xmlns="http://www.w3.org/2000/svg">
<g clip-path="url(#clip0_10_58)">
<path fill-rule="evenodd" clip-rule="evenodd" d="M35.75 11.375C35.75 6.88838 32.1116 3.25 27.625 3.25C22.6623 3.25 16.3378 3.25 11.375 3.25C6.88838 3.25 3.25 6.88838 3.25 11.375C3.25 16.3378 3.25 22.6623 3.25 27.625C3.25 32.1116 6.88838 35.75 11.375 35.75C16.3378 35.75 22.6623 35.75 27.625 35.75C32.1116 35.75 35.75 32.1116 35.75 27.625C35.75 22.6623 35.75 16.3378 35.75 11.375Z" fill="url(#paint0_radial_10_58)"/>
<path d="M24.3068 8.13313C27.7046 8.16563 30.8328 11.0825 30.8669 14.6933C30.8783 17.8978 30.8783 21.1023 30.8669 24.3068C30.8344 27.6916 27.9175 30.8328 24.3068 30.8669C21.1023 30.8783 17.8978 30.8783 14.6933 30.8669C11.2938 30.8344 8.16726 27.9175 8.13313 24.3068C8.12176 21.1023 8.12176 17.8978 8.13313 14.6933C8.16401 11.2921 11.0744 8.16726 14.6933 8.13313C17.8978 8.12176 21.1023 8.12176 24.3068 8.13313ZM14.7371 9.66876C12.0998 9.67688 9.69476 11.9633 9.66876 14.703C9.65901 17.901 9.65901 21.099 9.66876 24.297C9.69313 26.9051 11.9243 29.3053 14.703 29.3313C17.901 29.341 21.099 29.341 24.297 29.3313C26.9116 29.3069 29.3053 27.0758 29.3313 24.297C29.341 21.099 29.341 17.901 29.3313 14.703C29.3069 12.077 27.0319 9.69476 24.297 9.66876C21.1104 9.65901 17.9238 9.66876 14.7371 9.66876Z" fill="white"/>
<path d="M19.539 13.8125C22.1683 13.8369 24.6187 15.8649 25.0997 18.4633C25.4426 20.3158 24.7959 22.3243 23.4309 23.6275C21.9115 25.0737 19.5601 25.5905 17.5451 24.8527C15.2929 24.0289 13.7085 21.6547 13.8141 19.2497C13.9425 16.3767 16.4807 13.8223 19.5 13.8125C19.513 13.8125 19.526 13.8125 19.539 13.8125ZM19.474 15.3514C17.5971 15.3692 15.8275 16.7928 15.4375 18.642C15.0426 20.5124 16.1184 22.5875 17.8847 23.3334C19.8136 24.1491 22.3047 23.2343 23.2359 21.3298C24.1995 19.3619 23.2911 16.6888 21.2566 15.7381C20.7025 15.4798 20.0866 15.3497 19.474 15.3514Z" fill="white"/>
<path fill-rule="evenodd" clip-rule="evenodd" d="M26.8125 13.3689C26.8125 13.0553 26.6874 12.7546 26.4664 12.5336C26.2454 12.3126 25.9447 12.1875 25.6311 12.1875C25.6067 12.1875 25.5808 12.1875 25.5564 12.1875C25.2428 12.1875 24.9421 12.3126 24.7211 12.5336C24.5001 12.7546 24.375 13.0553 24.375 13.3689C24.375 13.3819 24.375 13.3932 24.375 13.4062C24.375 13.7296 24.5034 14.04 24.7325 14.2675C24.96 14.4966 25.2704 14.625 25.5938 14.625C26.2665 14.625 26.8125 14.079 26.8125 13.4062C26.8125 13.3932 26.8125 13.3819 26.8125 13.3689Z" fill="white"/>
</g>
<defs>
<radialGradient id="paint0_radial_10_58" cx="0" cy="0" r="1" gradientUnits="userSpaceOnUse" gradientTransform="translate(3.25 34.9375) scale(45.3911)">
<stop stop-color="#FF8100"/>
<stop offset="0.19" stop-color="#FF7209"/>
<stop offset="0.32" stop-color="#F55E16"/>
<stop offset="0.48" stop-color="#D92938"/>
<stop offset="1" stop-color="#9100FF"/>
</radialGradient>
<clipPath id="clip0_10_58">
<rect width="39" height="39" fill="white"/>
</clipPath>
</defs>
</svg>
