<svg width="33" height="33" viewBox="0 0 33 33" fill="none" xmlns="http://www.w3.org/2000/svg">
<g clip-path="url(#clip0_10_75)">
<path d="M27.225 0H5.775C2.58556 0 0 2.58556 0 5.775V27.225C0 30.4144 2.58556 33 5.775 33H27.225C30.4144 33 33 30.4144 33 27.225V5.775C33 2.58556 30.4144 0 27.225 0Z" fill="url(#paint0_linear_10_75)"/>
<path d="M14.1384 11.0241L15.1697 13.8239C15.1947 13.8866 15.203 13.9546 15.194 14.0214C15.185 14.0883 15.1588 14.1517 15.1181 14.2055C14.8968 14.5264 14.6409 14.8221 14.355 15.0872C14.2719 15.1525 14.217 15.2471 14.2016 15.3517C14.1863 15.4563 14.2116 15.5628 14.2725 15.6492C14.9067 16.5 16.5516 18.5625 18.6914 19.2998C18.7739 19.3271 18.8628 19.3273 18.9454 19.3004C19.028 19.2735 19.0998 19.2209 19.1503 19.1503L20.0063 18.0108C20.0647 17.9337 20.1483 17.8796 20.2426 17.8579C20.3368 17.8362 20.4357 17.8484 20.5219 17.8922L23.2031 19.2328C23.2964 19.2767 23.3695 19.3543 23.4078 19.45C23.446 19.5457 23.4466 19.6523 23.4094 19.7484C23.1155 20.5837 22.1925 22.6205 20.2177 22.2905C17.6352 21.8942 15.2864 20.5685 13.6125 18.5625C11.9934 16.5412 8.79657 11.3437 13.7105 10.7559C13.8014 10.7469 13.8928 10.7683 13.9703 10.8168C14.0478 10.8654 14.1069 10.9383 14.1384 11.0241Z" fill="white"/>
<path d="M17.325 28.2562C15.1679 28.2593 13.0467 27.7032 11.1685 26.6423L4.98096 28.2305L7.25486 23.1206C5.88034 21.1874 5.14639 18.872 5.15627 16.5C5.15627 10.0186 10.6167 4.74374 17.325 4.74374C24.0333 4.74374 29.4938 10.0186 29.4938 16.5C29.4938 22.9814 24.0333 28.2562 17.325 28.2562ZM11.4933 24.4251L11.8697 24.6572C13.5093 25.6691 15.3983 26.2048 17.325 26.2041C22.8989 26.2041 27.4313 21.8573 27.4313 16.5103C27.4313 11.1633 22.8989 6.80624 17.325 6.80624C11.7511 6.80624 7.21877 11.153 7.21877 16.5C7.22107 18.6269 7.94861 20.6895 9.28127 22.3472L9.66799 22.837L7.80658 25.9926L11.4933 24.4251Z" fill="white"/>
</g>
<defs>
<linearGradient id="paint0_linear_10_75" x1="16.5" y1="2.0625" x2="16.5" y2="33.4177" gradientUnits="userSpaceOnUse">
<stop stop-color="#1DF47C"/>
<stop offset="0.31" stop-color="#12DF63"/>
<stop offset="0.75" stop-color="#05C443"/>
<stop offset="1" stop-color="#00BA37"/>
</linearGradient>
<clipPath id="clip0_10_75">
<rect width="33" height="33" fill="white"/>
</clipPath>
</defs>
</svg>
